# xmcd CD database file
#
# Track frame offsets:
#	182
#	13205
#	25002
#	33570
#	46912
#	60620
#	71715
#	85342
#	100707
#	114900
#	126552
#	137205
#	150530
#	163975
#	179432
#	191560
#	202750
#	215355
#
# Disc length: 3053 seconds
#
# Revision: 0
# Processed by: cddbd v1.5.2PL0 Copyright (c) Steve Scherf et al.
# Submitted via: CDex 1.70beta1
#
DISCID=fc0beb12
DTITLE=Mills Brothers - Gloria 
DYEAR=1900
DGENRE=Jazz
TTITLE0=Gloria
TTITLE1=Basin Street Blues
TTITLE2=Tiger Rag
TTITLE3=If I Had My Way
TTITLE4=Put Another Chair At The Table
TTITLE5=The Window Washer Man
TTITLE6=Can't You Hear Me Calling Caroline
TTITLE7=You Always Hurt The One You Love
TTITLE8=When You Were Sweet Sixteen
TTITLE9=Paper Doll
TTITLE10=Nobody's Sweetheart
TTITLE11=Someday You'll Want Me To Want You
TTITLE12=Till Then
TTITLE13=You Tell Me Your Dream I'll Tell You MIne
TTITLE14=My Gal Sal
TTITLE15=I Guess I'll Get The Papers And Go Home
TTITLE16=Nevertheless I'm In Love With You
TTITLE17=Don't Be A Baby Baby
EXTD=
EXTT0=
EXTT1=
EXTT2=
EXTT3=
EXTT4=
EXTT5=
EXTT6=
EXTT7=
EXTT8=
EXTT9=
EXTT10=
EXTT11=
EXTT12=
EXTT13=
EXTT14=
EXTT15=
EXTT16=
EXTT17=
PLAYORDER=
